#!OML:ASF F:\VICON\USERDATA\INSTALL\Justin_Nancy\Justin_Nancy.ASF
:FULLY-SPECIFIED
:DEGREES
1
root 2.34915 17.2548 -30.5211 -0.459217 1.8094 5.05664
lowerback 6.69107 -1.86011 -6.01891
upperback -0.0933403 -2.8884 1.63488
thorax -3.47048 -1.31892 5.35831
lowerneck -15.2385 -2.86763 -9.72093
upperneck 20.1663 -2.91662 5.96843
head 9.07759 -1.47889 3.30868
rclavicle 2.84262e-014 1.27222e-014
rhumerus -45.9086 -28.3447 -63.3196
rradius 19.608
rwrist 23.7105
rhand -17.0452 6.38115
rfingers 7.12502
rthumb 9.19176 -23.3985
lclavicle 2.84262e-014 1.27222e-014
lhumerus -23.8419 8.02423 82.5944
lradius 33.0778
lwrist -7.05759
lhand -13.9644 32.6441
lfingers 7.12502
lthumb 12.1635 62.2705
rfemur -26.4639 2.46937 16.4039
rtibia 21.0175
rfoot 5.17821 -0.659782
rtoes 6.62146
lfemur 12.2847 -4.42697 -27.5846
ltibia 28.9299
lfoot -2.61036 -8.31968
ltoes -21.5819
2
root 2.32965 17.262 -30.3105 -0.589804 1.68418 4.53532
lowerback 7.47522 -4.57029 -8.75622
upperback -2.91582 -6.73797 4.89906
thorax -5.69172 -2.90934 10.9705
lowerneck -6.61052 0.794194 -14.2742
upperneck 18.3826 2.10225 4.93954
head 6.50167 0.437038 4.11211
rclavicle 2.73329e-015 -2.70347e-014
rhumerus -45.5866 -15.1834 -63.8238
rradius 19.1393
rwrist 22.7906
rhand -17.6158 5.8605
rfingers 7.12502
rthumb 8.64112 -23.9427
lclavicle 2.73329e-015 -2.70347e-014
lhumerus -32.75 18.3482 81.1049
lradius 34.6158
lwrist -7.71454
lhand -14.4793 29.5944
lfingers 7.12502
lthumb 11.6669 59.2496
rfemur -26.3733 2.0866 17.331
rtibia 22.4398
rfoot 4.77696 -0.138428
rtoes 7.6871
lfemur 11.0555 -4.39129 -26.8181
ltibia 31.8202
lfoot 0.404372 -8.98495
ltoes -21.0593
3
root 2.31015 17.2671 -30.0994 -0.787512 1.21502 4.06393
lowerback 7.84506 -5.16215 -9.19753
upperback -3.32841 -7.57031 5.8784
thorax -5.9618 -3.25509 12.4649
lowerneck -5.9775 1.7703 -15.3261
upperneck 18.2368 3.52787 4.54741
head 6.20685 1.02712 4.22441
rclavicle -6.42571e-014 5.24792e-014
rhumerus -44.8295 -12.289 -63.8436
rradius 18.7235
rwrist 23.194
rhand -17.8012 6.14193
rfingers 7.12502
rthumb 8.46222 -23.6685
lclavicle -6.42571e-014 5.24792e-014
lhumerus -34.8189 21.2934 80.5866
lradius 34.9704
lwrist -7.5927
lhand -14.5767 27.2941
lfingers 7.12502
lthumb 11.573 56.9546
rfemur -26.08 2.11909 18.1562
rtibia 23.5808
rfoot 4.24982 0.804632
rtoes 9.60352
lfemur 10.0301 -4.00064 -26.1123
ltibia 34.3615
lfoot 3.74291 -9.67298
ltoes -20.3199
4
root 2.28915 17.2823 -29.8858 -1.0612 1.15345 3.66142
lowerback 8.55619 -5.72754 -9.65723
upperback -3.8202 -8.40619 6.77555
thorax -6.48393 -3.57109 13.9704
lowerneck -5.36084 2.58494 -16.3995
upperneck 18.1232 4.70378 4.20756
head 5.94542 1.50273 4.32759
rclavicle 3.96575e-014 1.59028e-015
rhumerus -44.2856 -9.22726 -64.0282
rradius 18.7133
rwrist 22.5551
rhand -17.3712 7.15996
rfingers 7.12502
rthumb 8.87716 -22.6333
lclavicle 3.96575e-014 1.59028e-015
lhumerus -36.9574 23.6084 80.3317
lradius 35.5573
lwrist -6.90184
lhand -14.8717 30.2763
lfingers 7.12502
lthumb 11.2885 59.9526
rfemur -25.4991 2.10484 18.8158
rtibia 24.5198
rfoot 3.40799 1.38093
rtoes 9.85525
lfemur 9.0288 -3.87153 -25.4114
ltibia 36.8207
lfoot 6.71749 -10.8978
ltoes -20.3183
5
root 2.26649 17.3104 -29.6744 -1.39581 1.3935 3.17429
lowerback 9.21557 -6.18236 -9.77939
upperback -4.18989 -9.05993 7.42002
thorax -6.95232 -3.81836 14.9871
lowerneck -4.689 3.01266 -17.1869
upperneck 18.0353 5.27768 3.9364
head 5.74483 1.71101 4.36865
rclavicle -8.94531e-015 1.59028e-014
rhumerus -44.0703 -6.62684 -64.5346
rradius 19.0152
rwrist 21.4435
rhand -17.0954 7.32144
rfingers 7.12502
rthumb 9.14331 -22.4603
lclavicle -8.94531e-015 1.59028e-014
lhumerus -38.6579 25.0601 80.1452
lradius 36.0326
lwrist -5.97428
lhand -15.1107 33.0095
lfingers 7.12502
lthumb 11.0579 62.6982
rfemur -24.6282 1.89517 19.5561
rtibia 25.1572
rfoot 2.5195 1.26791
rtoes 8.68941
lfemur 7.94098 -3.9408 -24.5559
ltibia 39.2607
lfoot 9.01429 -12.713
ltoes -20.5721
6
root 2.24135 17.3399 -29.4722 -1.80941 1.53582 2.73504
lowerback 9.33668 -5.94005 -9.08035
upperback -3.98454 -8.65451 7.1691
thorax -7.05561 -3.65284 14.2542
lowerneck -4.59408 2.70008 -16.7298
upperneck 18.1392 4.75906 4.13389
head 5.8131 1.49759 4.34011
rclavicle -7.63333e-014 -2.06736e-014
rhumerus -44.4103 -7.65936 -64.6479
rradius 19.2451
rwrist 21.6233
rhand -17.2599 7.56454
rfingers 7.12502
rthumb 8.98455 -22.2241
lclavicle -7.63333e-014 -2.06736e-014
lhumerus -38.4696 24.2335 80.2682
lradius 35.8475
lwrist -5.76706
lhand -16.2031 31.6126
lfingers 7.12502
lthumb 10.0042 61.3548
rfemur -23.5089 1.70616 20.255
rtibia 25.4519
rfoot 1.69637 0.954001
rtoes 7.65965
lfemur 6.78457 -4.01126 -23.8124
ltibia 41.7554
lfoot 11.8635 -13.7731
ltoes -18.4888
